<svg width="1054" height="420" viewBox="-20 -10 1090 440" fill="none" xmlns="http://www.w3.org/2000/svg">
<path d="M1048.85 299.329C1017.89 297.384 986.841 295.705 955.715 294.143C982.978 213.118 1009.16 162.613 1010.23 158.867C1011.72 153.599 1009.74 148.627 1007.26 146.211C1000.59 139.71 994.563 136.465 992.369 136.246C989.404 135.95 986.856 138.929 985.836 139.953C967.378 158.761 925.245 217.426 912.698 227.517C906.093 232.829 909.116 220.846 914.028 207.423C915.635 203.008 923.536 177.646 927.725 162.045C931.365 149.024 919.551 134.228 906.374 132.86C905.311 132.841 903.185 132.972 899.307 136.571C882.305 152.265 837.672 216.975 824.577 227.517C817.976 232.829 820.495 220.662 825.902 207.423C829.149 199.496 857.475 137.546 824.179 135.708C786.045 133.598 738.359 199.074 738.359 199.074C738.359 199.074 747.406 174.935 749.847 161.138C752.594 145.532 741.606 136.547 732.049 133.535C723.555 130.857 715.474 138.352 707.975 146.778C689.406 166.13 652.557 217.63 640.273 227.517C633.682 232.829 636.201 220.662 641.603 207.423C644.845 199.496 673.19 137.546 639.89 135.708C601.76 133.598 554.074 199.074 554.074 199.074C554.074 199.074 563.111 174.935 565.543 161.138C568.3 145.532 557.345 136.465 547.764 133.535C541.406 131.589 534.373 133.661 519.089 152.052H519.104C498.612 175.915 466.734 218.872 455.993 227.517C449.392 232.829 452.406 220.846 457.313 207.423C458.934 203.008 466.821 177.646 471 162.045C474.708 148.806 462.458 133.699 449.004 132.773C444.092 132.671 440.146 141.84 437.22 151.164C435.385 156.961 423.067 166.722 411.904 162.836C407.031 161.133 408.166 155.879 412.248 153.23C417.388 149.883 419.422 144.998 418.664 140.05C415.966 122.319 385.568 124.526 385.097 152.561C385.015 157.344 386.204 161.288 388.223 164.534C378.924 177.86 369.765 192.229 363.912 200.17C351.249 217.339 339.275 233.605 337.086 227.129C334.979 220.948 343.099 195.931 352.743 166.794C354.374 161.657 354.743 158.261 354.306 155.307C352.816 145.187 345.682 131.167 335.3 132.923C323.7 134.893 290.579 182.992 277.916 200.151C265.248 217.319 254.173 233.605 251.979 227.129C249.79 220.662 259.72 197.26 267.787 164.897C275.868 132.521 245.305 127.039 234.268 128.839C232.094 129.658 232.103 132.749 232.924 133.918C234.846 139.443 235.093 141.971 233.341 150.291C232.434 154.594 229.264 168.827 220.882 204.357C212.316 240.712 225.808 244.088 235.2 248.838C251.139 256.881 275.674 228.317 278.571 224.591C281.129 221.273 297.534 198.162 311.27 178.762C309.125 185.083 306.436 194.805 305.203 205.618C300.903 243.133 311.377 244.651 320.443 248.493C336.877 255.464 353.661 236.006 363.14 224.441C365.965 221.002 384.311 194.111 398.449 173.285C401.167 174.585 404.094 175.526 407.064 176.147C416.932 178.214 424.964 175.881 431.434 172.077C426.92 188.93 416.597 230.452 424.076 238.873C427.003 242.182 426.993 243.152 434.788 247.397C441.209 250.899 446.946 251.482 460.337 241.93C479.256 228.438 511.164 181.484 527.457 162.579C522.511 180.572 510.086 227.9 514.221 235.608C516.396 239.659 522.87 244.855 529.413 248.086C535.951 251.312 537.732 248.241 540.993 242.439C571.721 187.931 613.214 156.35 616.224 166.202C619.233 176.055 595.052 222.937 603.692 235.41C606.216 239.048 611.448 243.463 619.796 246.47C628.139 249.483 631.236 251.482 644.627 241.93C663.541 228.438 695.448 181.489 711.746 162.583C706.791 180.577 694.39 227.9 698.516 235.608C700.69 239.659 707.165 244.855 713.707 248.086C720.255 251.312 722.021 248.241 725.283 242.439C756.011 187.931 797.509 156.35 800.513 166.202C803.537 176.055 779.342 222.937 787.996 235.41C790.515 239.048 795.737 243.463 804.081 246.47C812.443 249.483 815.525 251.482 828.916 241.93C845.093 230.393 871.011 193.461 888.411 171.049C884.062 187.164 873.152 230.272 880.791 238.873C883.723 242.182 883.698 243.152 891.493 247.397C897.91 250.899 903.661 251.482 917.037 241.93C929.729 232.872 948.294 208.743 964.039 188.135C951.26 220.749 939.844 256.619 930.055 292.862C651.247 279.89 365.586 282.219 70.9654 297.607C91.5542 266.773 167.425 173.814 285.871 36.1177C294.394 26.3329 280.95 9.91157 271.975 3.44493C269.403 1.58692 265.87 1.4026 264.962 1.38804C188.111 -0.144934 128.543 2.97438 32.6514 8.80066C30.0208 8.87828 28.3318 10.3045 28.3901 12.4148C28.5502 18.0664 35.4277 28.4868 51.294 31.2811C74.0474 35.2833 198.439 32.9693 243.082 35.5016C114.298 170.976 26.5408 267.568 4.03971 298.359C-4.52681 314.125 15.2952 327.306 37.3109 338.328C39.1844 339.269 43.1157 340.85 50.5611 340.85C283.401 326.137 567.945 306.416 925.575 309.914C916.503 345.299 909.01 380.596 903.35 413.08C901.258 425.135 920.542 420.007 923.182 408.66C931.53 372.727 940.956 339.681 950.435 310.191C978.94 310.545 1007.89 311.059 1037.31 311.724C1042.27 311.86 1047.11 309.056 1049.36 307.377C1052.28 305.209 1056.07 299.785 1048.85 299.329ZM479.062 111.03C489.886 106.217 496.52 92.8379 493.875 81.1514C491.24 69.4745 480.324 63.9053 469.501 68.7226C458.667 73.5398 452.033 86.9194 454.673 98.6059C457.313 110.283 468.234 115.857 479.062 111.03ZM1025.66 239.994C1027.57 239.994 1028.8 238.771 1028.8 236.719C1028.8 234.716 1027.57 233.581 1025.66 233.581H1022.34V239.994H1025.66ZM1019.8 231.451H1026.12C1029.26 231.451 1031.43 233.537 1031.43 236.719C1031.43 239.358 1029.76 240.993 1028.12 241.41V241.498C1028.12 241.498 1028.31 241.721 1028.72 242.492L1032.12 249.177H1029.3L1025.75 241.997H1022.34V249.177H1019.8V231.451ZM1025.16 254.397C1032.89 254.397 1038.8 248.27 1038.8 240.314C1038.8 232.445 1032.89 226.27 1025.16 226.27C1017.61 226.27 1011.79 232.445 1011.79 240.314C1011.79 248.27 1017.61 254.397 1025.16 254.397ZM1025.16 223.81C1034.22 223.81 1041.44 231.136 1041.44 240.314C1041.44 249.59 1034.22 256.852 1025.16 256.852C1016.3 256.852 1009.1 249.59 1009.1 240.314C1009.1 231.136 1016.3 223.81 1025.16 223.81Z" fill="white"/>
</svg>
